<svg width="21" height="20" viewBox="0 0 21 20" fill="none" xmlns="http://www.w3.org/2000/svg">
<path d="M15.668 4H20.7318V6H18.7063V19C18.7063 19.2652 18.5996 19.5196 18.4097 19.7071C18.2197 19.8946 17.9621 20 17.6935 20H3.51485C3.24625 20 2.98865 19.8946 2.79872 19.7071C2.60879 19.5196 2.50209 19.2652 2.50209 19V6H0.476562V4H5.54037V1C5.54037 0.734784 5.64708 0.48043 5.83701 0.292893C6.02694 0.105357 6.28454 0 6.55314 0H14.6552C14.9238 0 15.1814 0.105357 15.3714 0.292893C15.5613 0.48043 15.668 0.734784 15.668 1V4ZM7.5659 9V15H9.59142V9H7.5659ZM11.6169 9V15H13.6425V9H11.6169ZM7.5659 2V4H13.6425V2H7.5659Z" fill="#2D3748"/>
</svg>
