<svg width="14" height="19" viewBox="0 0 14 19" fill="none" xmlns="http://www.w3.org/2000/svg">
<path d="M13.6666 18.332H0.333252V16.6654C0.333252 15.5603 0.772239 14.5005 1.55364 13.7191C2.33504 12.9377 3.39485 12.4987 4.49992 12.4987H9.49992C10.605 12.4987 11.6648 12.9377 12.4462 13.7191C13.2276 14.5005 13.6666 15.5603 13.6666 16.6654V18.332ZM6.99992 10.832C6.34331 10.832 5.69313 10.7027 5.0865 10.4514C4.47987 10.2002 3.92868 9.83186 3.46438 9.36757C3.00009 8.90327 2.63179 8.35208 2.38052 7.74545C2.12925 7.13882 1.99992 6.48864 1.99992 5.83203C1.99992 5.17542 2.12925 4.52524 2.38052 3.91861C2.63179 3.31199 3.00009 2.76079 3.46438 2.2965C3.92868 1.8322 4.47987 1.46391 5.0865 1.21263C5.69313 0.96136 6.34331 0.832031 6.99992 0.832031C8.326 0.832031 9.59777 1.35882 10.5355 2.2965C11.4731 3.23418 11.9999 4.50595 11.9999 5.83203C11.9999 7.15811 11.4731 8.42988 10.5355 9.36757C9.59777 10.3052 8.326 10.832 6.99992 10.832Z" fill="white"/>
</svg>
